%
M48
M72
T01C0.0118
T02C0.0354
T03C0.0360
T04C0.0374
T05C0.0394
T06C0.0400
T07C0.0550
T08C0.0551
T09C0.0591
T10C0.0906
T11C0.1181
%
T01
X9883Y6723
X13480Y7680
X11480Y9180
X14980Y9680
X15980Y10180
X18980Y8180
X19980Y6180
X19480Y5680
X14480Y12680
X18480Y13180
X35480Y6680
X43533Y10341
X43533Y11841
X48480Y10180
T02
X4980Y2680
X5980Y2680
X6980Y2680
X7980Y2680
X8980Y2680
X9980Y2680
X9980Y10680
X8980Y10680
X7980Y10680
X6980Y10680
X5980Y10680
X4980Y10680
X48980Y6180
T03
X37980Y6180
X36980Y6180
X36980Y7680
X37980Y7680
X37980Y9180
X36980Y9180
X33480Y6180
X33480Y5180
X33480Y4180
X35980Y3680
X35980Y4680
X23980Y11680
X22980Y11680
X21980Y11680
X18980Y11680
X17980Y11680
X16980Y11680
T04
X44988Y7034
X44988Y6247
X45972Y6247
X45972Y7034
T05
X35480Y9180
X34480Y9180
X33480Y9180
X32480Y9180
X32980Y15680
X33980Y15680
X34980Y15680
X35980Y15680
X30980Y15680
X30980Y16680
X27480Y16680
X27480Y15680
X21480Y15680
X20480Y15680
X19480Y15680
X18480Y15680
X11480Y13180
X10480Y13180
X9480Y13180
X8480Y13180
X8480Y15680
X7480Y15680
X6480Y15680
X4480Y15680
X4480Y16680
X9480Y15680
X9480Y25680
X8480Y25680
X7480Y25680
X6480Y25680
X4480Y25680
X4480Y26680
X4480Y27680
X5480Y34680
X6480Y34680
X7480Y34680
X8480Y34680
X9480Y34680
X10480Y34680
X12480Y34680
X13480Y34680
X14480Y34680
X15480Y34680
X16480Y34680
X17480Y34680
X18480Y34680
X19480Y34680
X20480Y34680
X21480Y34680
X22480Y34680
X23480Y34680
X24480Y34680
X25480Y34680
X26480Y34680
X27480Y34680
X31980Y34680
X32980Y34680
X33980Y34680
X34980Y34680
X35980Y34680
X36980Y34680
X38980Y34680
X39980Y34680
X40980Y34680
X41980Y34680
X42980Y34680
X43980Y34680
X44980Y34680
X45980Y34680
X46980Y34680
X47980Y34680
X48980Y34680
X49980Y34680
X50980Y34680
X51980Y34680
X52980Y34680
X53980Y34680
X35980Y25680
X34980Y25680
X33980Y25680
X32980Y25680
X30980Y25680
X30980Y26680
X30980Y27680
X30980Y38680
X31980Y38680
X32980Y38680
X33980Y38680
X53980Y16680
X53980Y15680
X47980Y15680
X46980Y15680
X45980Y15680
X44980Y15680
T06
X30480Y9680
X30480Y8680
X30480Y7680
X30480Y6680
X30480Y5680
X30480Y4680
X29480Y4180
X28480Y4180
X27480Y4180
X26480Y4180
X25480Y4180
X24480Y4180
X23480Y4180
X22480Y4180
X21480Y4180
X20480Y4180
X19480Y4180
X18480Y4180
X16370Y2900
X14590Y2900
X13866Y4180
X14590Y5460
X16370Y5460
X20930Y5330
X21930Y5330
X25030Y5330
X26030Y5330
X26480Y10180
X25480Y10180
X24480Y10180
X23480Y10180
X22480Y10180
X21480Y10180
X20480Y10180
X19480Y10180
X18480Y10180
X27480Y10180
X28480Y10180
X29480Y10180
T07
X26980Y38180
X24980Y38180
X22980Y38180
X20980Y38180
X18980Y38180
X16980Y38180
X14980Y38180
X12980Y38180
X39480Y38680
X41480Y38680
X43480Y38680
X45480Y38680
X47480Y38680
X49480Y38680
X51480Y38680
X53480Y38680
T08
X54063Y8334
X51897Y8334
X51897Y6680
X54063Y6680
X54063Y5026
X51897Y5026
T09
X36134Y30097
X34480Y30097
X32826Y30097
X32826Y32263
X34480Y32263
X36134Y32263
X39480Y32180
X41480Y32180
X43480Y32180
X45480Y32180
X47480Y32180
X49480Y32180
X51480Y32180
X53480Y32180
X26980Y32180
X24980Y32180
X22980Y32180
X20980Y32180
X18980Y32180
X16980Y32180
X14980Y32180
X12980Y32180
X9634Y32263
X7980Y32263
X6326Y32263
X6326Y30097
X7980Y30097
X9634Y30097
T10
X43110Y5180
X47850Y5180
T11
X53882Y3176
X53882Y10184
M30
