%
M48
M72
T01C0.0157
T02C0.0354
T03C0.0360
T04C0.0374
T05C0.0394
T06C0.0400
T07C0.0550
T08C0.0551
T09C0.0591
T10C0.0906
T11C0.1181
%
T01
X8339Y5689
X9936Y8146
X11936Y6646
X13436Y8646
X14436Y9146
X17436Y7146
X18436Y5146
X17936Y4646
X12936Y11646
X16936Y12146
X33936Y5646
X41989Y9308
X41989Y10808
X46936Y9146
T02
X3436Y1646
X4436Y1646
X5436Y1646
X6436Y1646
X7436Y1646
X8436Y1646
X8436Y9646
X7436Y9646
X6436Y9646
X5436Y9646
X4436Y9646
X3436Y9646
X47436Y5146
T03
X36436Y5146
X35436Y5146
X35436Y6646
X36436Y6646
X36436Y8146
X35436Y8146
X31936Y5146
X31936Y4146
X31936Y3146
X34436Y2646
X34436Y3646
X22436Y10646
X21436Y10646
X20436Y10646
X17436Y10646
X16436Y10646
X15436Y10646
T04
X43444Y6000
X43444Y5213
X44428Y5213
X44428Y6000
T05
X33936Y8146
X32936Y8146
X31936Y8146
X30936Y8146
X31436Y14646
X32436Y14646
X33436Y14646
X34436Y14646
X29436Y14646
X29436Y15646
X25936Y15646
X25936Y14646
X19936Y14646
X18936Y14646
X17936Y14646
X16936Y14646
X9936Y12146
X8936Y12146
X7936Y12146
X6936Y12146
X6936Y14646
X5936Y14646
X4936Y14646
X2936Y14646
X2936Y15646
X7936Y14646
X7936Y24646
X6936Y24646
X5936Y24646
X4936Y24646
X2936Y24646
X2936Y25646
X2936Y26646
X3936Y33646
X4936Y33646
X5936Y33646
X6936Y33646
X7936Y33646
X8936Y33646
X10936Y33646
X11936Y33646
X12936Y33646
X13936Y33646
X14936Y33646
X15936Y33646
X16936Y33646
X17936Y33646
X18936Y33646
X19936Y33646
X20936Y33646
X21936Y33646
X22936Y33646
X23936Y33646
X24936Y33646
X25936Y33646
X30436Y33646
X31436Y33646
X32436Y33646
X33436Y33646
X34436Y33646
X35436Y33646
X37436Y33646
X38436Y33646
X39436Y33646
X40436Y33646
X41436Y33646
X42436Y33646
X43436Y33646
X44436Y33646
X45436Y33646
X46436Y33646
X47436Y33646
X48436Y33646
X49436Y33646
X50436Y33646
X51436Y33646
X52436Y33646
X34436Y24646
X33436Y24646
X32436Y24646
X31436Y24646
X29436Y24646
X29436Y25646
X29436Y26646
X29436Y37646
X30436Y37646
X31436Y37646
X32436Y37646
X52436Y15646
X52436Y14646
X46436Y14646
X45436Y14646
X44436Y14646
X43436Y14646
T06
X28936Y8646
X28936Y7646
X28936Y6646
X28936Y5646
X28936Y4646
X28936Y3646
X27936Y3146
X26936Y3146
X25936Y3146
X24936Y3146
X23936Y3146
X22936Y3146
X21936Y3146
X20936Y3146
X19936Y3146
X18936Y3146
X17936Y3146
X16936Y3146
X14826Y1866
X13046Y1866
X12322Y3146
X13046Y4426
X14826Y4426
X19386Y4296
X20386Y4296
X23486Y4296
X24486Y4296
X24936Y9146
X23936Y9146
X22936Y9146
X21936Y9146
X20936Y9146
X19936Y9146
X18936Y9146
X17936Y9146
X16936Y9146
X25936Y9146
X26936Y9146
X27936Y9146
T07
X25436Y37146
X23436Y37146
X21436Y37146
X19436Y37146
X17436Y37146
X15436Y37146
X13436Y37146
X11436Y37146
X37936Y37646
X39936Y37646
X41936Y37646
X43936Y37646
X45936Y37646
X47936Y37646
X49936Y37646
X51936Y37646
T08
X52519Y7300
X52519Y5646
X52519Y3993
X50353Y3993
X50353Y5646
X50353Y7300
T09
X34590Y29063
X32936Y29063
X31282Y29063
X31282Y31229
X32936Y31229
X34590Y31229
X37936Y31146
X39936Y31146
X41936Y31146
X43936Y31146
X45936Y31146
X47936Y31146
X49936Y31146
X51936Y31146
X25436Y31146
X23436Y31146
X21436Y31146
X19436Y31146
X17436Y31146
X15436Y31146
X13436Y31146
X11436Y31146
X8090Y31229
X6436Y31229
X4782Y31229
X4782Y29063
X6436Y29063
X8090Y29063
T10
X41566Y4146
X46306Y4146
T11
X52338Y2142
X52338Y9150
M30
