G75*
G70*
%OFA0B0*%
%FSLAX24Y24*%
%IPPOS*%
%LPD*%
%AMOC8*
5,1,8,0,0,1.08239X$1,22.5*
%
%ADD10C,0.0000*%
D10*
X000936Y000646D02*
X000936Y039016D01*
X054428Y039016D01*
X054428Y000646D01*
X000936Y000646D01*
X051747Y002142D02*
X051749Y002190D01*
X051755Y002238D01*
X051765Y002285D01*
X051778Y002331D01*
X051796Y002376D01*
X051816Y002420D01*
X051841Y002462D01*
X051869Y002501D01*
X051899Y002538D01*
X051933Y002572D01*
X051970Y002604D01*
X052008Y002633D01*
X052049Y002658D01*
X052092Y002680D01*
X052137Y002698D01*
X052183Y002712D01*
X052230Y002723D01*
X052278Y002730D01*
X052326Y002733D01*
X052374Y002732D01*
X052422Y002727D01*
X052470Y002718D01*
X052516Y002706D01*
X052561Y002689D01*
X052605Y002669D01*
X052647Y002646D01*
X052687Y002619D01*
X052725Y002589D01*
X052760Y002556D01*
X052792Y002520D01*
X052822Y002482D01*
X052848Y002441D01*
X052870Y002398D01*
X052890Y002354D01*
X052905Y002309D01*
X052917Y002262D01*
X052925Y002214D01*
X052929Y002166D01*
X052929Y002118D01*
X052925Y002070D01*
X052917Y002022D01*
X052905Y001975D01*
X052890Y001930D01*
X052870Y001886D01*
X052848Y001843D01*
X052822Y001802D01*
X052792Y001764D01*
X052760Y001728D01*
X052725Y001695D01*
X052687Y001665D01*
X052647Y001638D01*
X052605Y001615D01*
X052561Y001595D01*
X052516Y001578D01*
X052470Y001566D01*
X052422Y001557D01*
X052374Y001552D01*
X052326Y001551D01*
X052278Y001554D01*
X052230Y001561D01*
X052183Y001572D01*
X052137Y001586D01*
X052092Y001604D01*
X052049Y001626D01*
X052008Y001651D01*
X051970Y001680D01*
X051933Y001712D01*
X051899Y001746D01*
X051869Y001783D01*
X051841Y001822D01*
X051816Y001864D01*
X051796Y001908D01*
X051778Y001953D01*
X051765Y001999D01*
X051755Y002046D01*
X051749Y002094D01*
X051747Y002142D01*
X051747Y009150D02*
X051749Y009198D01*
X051755Y009246D01*
X051765Y009293D01*
X051778Y009339D01*
X051796Y009384D01*
X051816Y009428D01*
X051841Y009470D01*
X051869Y009509D01*
X051899Y009546D01*
X051933Y009580D01*
X051970Y009612D01*
X052008Y009641D01*
X052049Y009666D01*
X052092Y009688D01*
X052137Y009706D01*
X052183Y009720D01*
X052230Y009731D01*
X052278Y009738D01*
X052326Y009741D01*
X052374Y009740D01*
X052422Y009735D01*
X052470Y009726D01*
X052516Y009714D01*
X052561Y009697D01*
X052605Y009677D01*
X052647Y009654D01*
X052687Y009627D01*
X052725Y009597D01*
X052760Y009564D01*
X052792Y009528D01*
X052822Y009490D01*
X052848Y009449D01*
X052870Y009406D01*
X052890Y009362D01*
X052905Y009317D01*
X052917Y009270D01*
X052925Y009222D01*
X052929Y009174D01*
X052929Y009126D01*
X052925Y009078D01*
X052917Y009030D01*
X052905Y008983D01*
X052890Y008938D01*
X052870Y008894D01*
X052848Y008851D01*
X052822Y008810D01*
X052792Y008772D01*
X052760Y008736D01*
X052725Y008703D01*
X052687Y008673D01*
X052647Y008646D01*
X052605Y008623D01*
X052561Y008603D01*
X052516Y008586D01*
X052470Y008574D01*
X052422Y008565D01*
X052374Y008560D01*
X052326Y008559D01*
X052278Y008562D01*
X052230Y008569D01*
X052183Y008580D01*
X052137Y008594D01*
X052092Y008612D01*
X052049Y008634D01*
X052008Y008659D01*
X051970Y008688D01*
X051933Y008720D01*
X051899Y008754D01*
X051869Y008791D01*
X051841Y008830D01*
X051816Y008872D01*
X051796Y008916D01*
X051778Y008961D01*
X051765Y009007D01*
X051755Y009054D01*
X051749Y009102D01*
X051747Y009150D01*
M02*
