G75*
G70*
%OFA0B0*%
%FSLAX24Y24*%
%IPPOS*%
%LPD*%
%AMOC8*
5,1,8,0,0,1.08239X$1,22.5*
%
%ADD10R,3.7932X0.0697*%
%ADD11R,0.0673X1.5353*%
%ADD12R,0.2882X0.0747*%
%ADD13R,0.0808X0.3800*%
%ADD14R,0.0770X0.4583*%
%ADD15R,0.0863X0.4849*%
%ADD16R,0.0879X0.5591*%
%ADD17R,0.4090X0.0833*%
%ADD18R,0.0863X0.4773*%
%ADD19R,0.0675X0.2157*%
%ADD20R,0.1389X0.0796*%
%ADD21R,0.0241X0.0124*%
%ADD22R,0.0194X0.0150*%
%ADD23R,0.0385X0.0330*%
%ADD24R,0.0279X0.0340*%
%ADD25R,0.0274X0.0233*%
%ADD26R,0.0786X0.0274*%
%ADD27R,0.0629X0.0456*%
%ADD28R,0.0406X0.0299*%
%ADD29R,0.0330X0.0441*%
%ADD30R,0.0507X0.0593*%
%ADD31R,0.0314X0.0284*%
%ADD32R,0.0152X0.0340*%
%ADD33R,0.0117X0.0213*%
%ADD34R,0.0106X0.0147*%
%ADD35R,0.0132X0.0147*%
%ADD36R,0.0162X0.0193*%
%ADD37R,0.0112X0.0188*%
%ADD38R,0.0112X0.0132*%
%ADD39R,0.0147X0.0325*%
%ADD40R,0.0101X0.0218*%
%ADD41R,0.0106X0.0269*%
%ADD42R,0.0147X0.2977*%
%ADD43R,0.0152X0.2997*%
%ADD44R,0.0252X0.7312*%
%ADD45R,0.0137X1.2047*%
%ADD46R,0.0158X0.4602*%
%ADD47R,3.7303X0.0192*%
%ADD48R,3.7918X0.0115*%
%ADD49R,0.1777X0.0791*%
%ADD50R,0.0492X0.0502*%
%ADD51R,0.0213X0.0157*%
%ADD52R,0.0112X0.0112*%
%ADD53R,0.0132X0.0142*%
%ADD54R,0.0112X0.0076*%
%ADD55R,0.0122X0.0086*%
%ADD56R,0.0294X0.0223*%
%ADD57R,0.0289X0.0243*%
%ADD58R,0.0172X0.0127*%
%ADD59R,0.0122X0.0117*%
%ADD60R,0.0188X0.0172*%
%ADD61R,0.0142X0.0132*%
%ADD62R,0.0112X0.0147*%
%ADD63R,0.0114X0.0087*%
%ADD64R,0.0121X0.0092*%
%ADD65R,0.0119X0.0073*%
%ADD66R,0.0073X0.0048*%
%ADD67R,0.0100X0.0160*%
%ADD68R,0.0048X0.0049*%
%ADD69R,0.0081X0.0050*%
%ADD70R,0.0078X0.0058*%
%ADD71R,0.0041X0.0036*%
%ADD72R,0.0020X0.0028*%
%ADD73R,0.0046X0.0047*%
%ADD74R,0.0081X0.0052*%
%ADD75R,0.0049X0.0044*%
%ADD76R,0.0040X0.0035*%
%ADD77R,0.0010X0.0019*%
%ADD78R,0.0390X0.0255*%
%ADD79R,0.0340X0.0261*%
%ADD80R,0.0258X0.0249*%
%ADD81R,0.0355X0.0241*%
%ADD82R,0.0396X0.0229*%
%ADD83R,0.0326X0.0314*%
%ADD84R,0.0214X0.0205*%
%ADD85R,0.0123X0.0117*%
%ADD86R,0.0402X0.0288*%
%ADD87R,0.0255X0.0135*%
%ADD88R,0.0167X0.0211*%
%ADD89R,0.0156X0.0106*%
%ADD90R,0.0182X0.0205*%
%ADD91R,0.0754X0.1620*%
%ADD92R,0.0112X0.0102*%
%ADD93R,0.0211X0.0273*%
%ADD94R,0.0740X0.0740*%
%ADD95OC8,0.0740*%
%ADD96C,0.0740*%
%ADD97C,0.0640*%
%ADD98R,0.0907X0.0907*%
%ADD99C,0.1261*%
%ADD100C,0.0674*%
%ADD101C,0.0966*%
%ADD102R,0.0966X0.0966*%
%ADD103R,0.0118X0.0236*%
%ADD104R,0.0236X0.0118*%
%ADD105R,0.0197X0.0197*%
%ADD106R,0.0671X0.0592*%
%ADD107R,0.0789X0.0710*%
%ADD108OC8,0.0654*%
%ADD109C,0.1386*%
%ADD110R,0.0671X0.0671*%
%ADD111R,0.0710X0.0592*%
%ADD112R,0.0631X0.0789*%
%ADD113R,0.0789X0.0631*%
%ADD114C,0.0680*%
%ADD115C,0.0905*%
%ADD116C,0.0611*%
D10*
X029582Y021632D03*
D11*
X048434Y014180D03*
D12*
X050972Y005638D03*
D13*
X027418Y023303D03*
D14*
X036437Y024010D03*
D15*
X032922Y030980D03*
D16*
X006405Y030624D03*
D17*
X007359Y027655D03*
D18*
X010927Y023791D03*
D19*
G36*
X011178Y026353D02*
X010701Y025876D01*
X009178Y027399D01*
X009655Y027876D01*
X011178Y026353D01*
G37*
G36*
X032732Y028398D02*
X033209Y028875D01*
X034732Y027352D01*
X034255Y026875D01*
X032732Y028398D01*
G37*
D20*
X034776Y027159D03*
D21*
X048682Y021816D03*
D22*
X048607Y021907D03*
D23*
X048828Y006567D03*
D24*
X049049Y006349D03*
D25*
X049229Y006179D03*
D26*
X049201Y005961D03*
D27*
X049406Y005703D03*
D28*
X049442Y005416D03*
D29*
X048526Y006365D03*
D30*
X048833Y006202D03*
D31*
X048939Y005814D03*
D32*
X049041Y005624D03*
D33*
X049216Y005444D03*
D34*
X049145Y005457D03*
D35*
X048939Y005619D03*
D36*
X048721Y005880D03*
D37*
X048534Y006070D03*
D38*
X048453Y006144D03*
D39*
X048323Y006377D03*
D40*
X048179Y006456D03*
D41*
X048252Y006405D03*
D42*
X048110Y008053D03*
D43*
X048797Y008155D03*
D44*
X048174Y013171D03*
D45*
X048779Y015654D03*
D46*
X048105Y019119D03*
D47*
X029893Y021958D03*
D48*
X029769Y021288D03*
D49*
X028674Y025644D03*
D50*
X027587Y025368D03*
D51*
X027864Y025221D03*
D52*
X028006Y025229D03*
D53*
X027844Y025102D03*
D54*
X027909Y025130D03*
D55*
X027803Y025034D03*
D56*
X027696Y025696D03*
D57*
X027258Y025259D03*
D58*
X027281Y025419D03*
D59*
X027514Y025663D03*
D60*
X027750Y025833D03*
D61*
X027773Y025934D03*
D62*
X027656Y025825D03*
D63*
X027533Y025727D03*
D64*
X027439Y025631D03*
D65*
X027315Y025500D03*
D66*
X027178Y025389D03*
D67*
X027098Y025258D03*
D68*
X027114Y025338D03*
D69*
X027199Y025420D03*
D70*
X027323Y025559D03*
D71*
X027251Y025490D03*
D72*
X027380Y025621D03*
D73*
X027451Y025684D03*
D74*
X027591Y025823D03*
D75*
X027550Y025776D03*
D76*
X027693Y025924D03*
D77*
X027702Y025947D03*
D78*
X032771Y028519D03*
D79*
X032857Y028284D03*
D80*
X033022Y028128D03*
D81*
X033249Y027930D03*
D82*
X033381Y027754D03*
D83*
X033563Y027580D03*
D84*
X033772Y027370D03*
D85*
X033870Y027264D03*
D86*
X033954Y027208D03*
D87*
X034053Y027109D03*
D88*
X034089Y027038D03*
D89*
X035573Y027458D03*
D90*
X035689Y027352D03*
D91*
G36*
X036765Y026336D02*
X036232Y025803D01*
X035087Y026948D01*
X035620Y027481D01*
X036765Y026336D01*
G37*
D92*
X036753Y026314D03*
D93*
X035539Y027410D03*
D94*
X003436Y001646D03*
X003436Y009646D03*
D95*
X004436Y009646D03*
X005436Y009646D03*
X006436Y009646D03*
X007436Y009646D03*
X008436Y009646D03*
X008436Y001646D03*
X007436Y001646D03*
X006436Y001646D03*
X005436Y001646D03*
X004436Y001646D03*
D96*
X016936Y003146D03*
X017936Y003146D03*
X018936Y003146D03*
X019936Y003146D03*
X020936Y003146D03*
X021936Y003146D03*
X022936Y003146D03*
X023936Y003146D03*
X024936Y003146D03*
X025936Y003146D03*
X026936Y003146D03*
X027936Y003146D03*
X028936Y003646D03*
X028936Y004646D03*
X028936Y005646D03*
X028936Y006646D03*
X028936Y007646D03*
X028936Y008646D03*
X027936Y009146D03*
X026936Y009146D03*
X025936Y009146D03*
X024936Y009146D03*
X023936Y009146D03*
X022936Y009146D03*
X021936Y009146D03*
X020936Y009146D03*
X019936Y009146D03*
X018936Y009146D03*
X017936Y009146D03*
X016936Y009146D03*
X019386Y004296D03*
X020386Y004296D03*
X023486Y004296D03*
X024486Y004296D03*
D97*
X031656Y004146D02*
X032216Y004146D01*
X032216Y003146D02*
X031656Y003146D01*
X034156Y002646D02*
X034716Y002646D01*
X034716Y003646D02*
X034156Y003646D01*
X035436Y004866D02*
X035436Y005426D01*
X035436Y006366D02*
X035436Y006926D01*
X035436Y007866D02*
X035436Y008426D01*
X036436Y008426D02*
X036436Y007866D01*
X036436Y006926D02*
X036436Y006366D01*
X036436Y005426D02*
X036436Y004866D01*
X032216Y005146D02*
X031656Y005146D01*
X022436Y010366D02*
X022436Y010926D01*
X021436Y010926D02*
X021436Y010366D01*
X020436Y010366D02*
X020436Y010926D01*
X017436Y010926D02*
X017436Y010366D01*
X016436Y010366D02*
X016436Y010926D01*
X015436Y010926D02*
X015436Y010366D01*
D98*
X050353Y007300D03*
X050353Y005646D03*
X050353Y003993D03*
X052519Y003993D03*
X052519Y005646D03*
X052519Y007300D03*
D99*
X052338Y009150D03*
X052338Y002142D03*
D100*
X046436Y014349D02*
X046436Y014943D01*
X045436Y014943D02*
X045436Y014349D01*
X044436Y014349D02*
X044436Y014943D01*
X043436Y014943D02*
X043436Y014349D01*
X052139Y014646D02*
X052733Y014646D01*
X052733Y015646D02*
X052139Y015646D01*
X034436Y014943D02*
X034436Y014349D01*
X033436Y014349D02*
X033436Y014943D01*
X032436Y014943D02*
X032436Y014349D01*
X031436Y014349D02*
X031436Y014943D01*
X029733Y014646D02*
X029139Y014646D01*
X029139Y015646D02*
X029733Y015646D01*
X026233Y015646D02*
X025639Y015646D01*
X025639Y014646D02*
X026233Y014646D01*
X019936Y014349D02*
X019936Y014943D01*
X018936Y014943D02*
X018936Y014349D01*
X017936Y014349D02*
X017936Y014943D01*
X016936Y014943D02*
X016936Y014349D01*
X009936Y012443D02*
X009936Y011849D01*
X008936Y011849D02*
X008936Y012443D01*
X007936Y012443D02*
X007936Y011849D01*
X006936Y011849D02*
X006936Y012443D01*
X006936Y014349D02*
X006936Y014943D01*
X005936Y014943D02*
X005936Y014349D01*
X004936Y014349D02*
X004936Y014943D01*
X003233Y014646D02*
X002639Y014646D01*
X002639Y015646D02*
X003233Y015646D01*
X007936Y014943D02*
X007936Y014349D01*
X007936Y024349D02*
X007936Y024943D01*
X006936Y024943D02*
X006936Y024349D01*
X005936Y024349D02*
X005936Y024943D01*
X004936Y024943D02*
X004936Y024349D01*
X003233Y024646D02*
X002639Y024646D01*
X002639Y025646D02*
X003233Y025646D01*
X003233Y026646D02*
X002639Y026646D01*
X003936Y033349D02*
X003936Y033943D01*
X004936Y033943D02*
X004936Y033349D01*
X005936Y033349D02*
X005936Y033943D01*
X006936Y033943D02*
X006936Y033349D01*
X007936Y033349D02*
X007936Y033943D01*
X008936Y033943D02*
X008936Y033349D01*
X010936Y033349D02*
X010936Y033943D01*
X011936Y033943D02*
X011936Y033349D01*
X012936Y033349D02*
X012936Y033943D01*
X013936Y033943D02*
X013936Y033349D01*
X014936Y033349D02*
X014936Y033943D01*
X015936Y033943D02*
X015936Y033349D01*
X016936Y033349D02*
X016936Y033943D01*
X017936Y033943D02*
X017936Y033349D01*
X018936Y033349D02*
X018936Y033943D01*
X019936Y033943D02*
X019936Y033349D01*
X020936Y033349D02*
X020936Y033943D01*
X021936Y033943D02*
X021936Y033349D01*
X022936Y033349D02*
X022936Y033943D01*
X023936Y033943D02*
X023936Y033349D01*
X024936Y033349D02*
X024936Y033943D01*
X025936Y033943D02*
X025936Y033349D01*
X030436Y033349D02*
X030436Y033943D01*
X031436Y033943D02*
X031436Y033349D01*
X032436Y033349D02*
X032436Y033943D01*
X033436Y033943D02*
X033436Y033349D01*
X034436Y033349D02*
X034436Y033943D01*
X035436Y033943D02*
X035436Y033349D01*
X037436Y033349D02*
X037436Y033943D01*
X038436Y033943D02*
X038436Y033349D01*
X039436Y033349D02*
X039436Y033943D01*
X040436Y033943D02*
X040436Y033349D01*
X041436Y033349D02*
X041436Y033943D01*
X042436Y033943D02*
X042436Y033349D01*
X043436Y033349D02*
X043436Y033943D01*
X044436Y033943D02*
X044436Y033349D01*
X045436Y033349D02*
X045436Y033943D01*
X046436Y033943D02*
X046436Y033349D01*
X047436Y033349D02*
X047436Y033943D01*
X048436Y033943D02*
X048436Y033349D01*
X049436Y033349D02*
X049436Y033943D01*
X050436Y033943D02*
X050436Y033349D01*
X051436Y033349D02*
X051436Y033943D01*
X052436Y033943D02*
X052436Y033349D01*
X034436Y024943D02*
X034436Y024349D01*
X033436Y024349D02*
X033436Y024943D01*
X032436Y024943D02*
X032436Y024349D01*
X031436Y024349D02*
X031436Y024943D01*
X029733Y024646D02*
X029139Y024646D01*
X029139Y025646D02*
X029733Y025646D01*
X029733Y026646D02*
X029139Y026646D01*
X029436Y037349D02*
X029436Y037943D01*
X030436Y037943D02*
X030436Y037349D01*
X031436Y037349D02*
X031436Y037943D01*
X032436Y037943D02*
X032436Y037349D01*
X031936Y008443D02*
X031936Y007849D01*
X030936Y007849D02*
X030936Y008443D01*
X032936Y008443D02*
X032936Y007849D01*
X033936Y007849D02*
X033936Y008443D01*
D101*
X037936Y030703D02*
X037936Y031589D01*
X039936Y031589D02*
X039936Y030703D01*
X041936Y030703D02*
X041936Y031589D01*
X043936Y031589D02*
X043936Y030703D01*
X045936Y030703D02*
X045936Y031589D01*
X047936Y031589D02*
X047936Y030703D01*
X049936Y030703D02*
X049936Y031589D01*
X051936Y031589D02*
X051936Y030703D01*
X025436Y030703D02*
X025436Y031589D01*
X023436Y031589D02*
X023436Y030703D01*
X021436Y030703D02*
X021436Y031589D01*
X019436Y031589D02*
X019436Y030703D01*
X017436Y030703D02*
X017436Y031589D01*
X015436Y031589D02*
X015436Y030703D01*
X013436Y030703D02*
X013436Y031589D01*
X011436Y031589D02*
X011436Y030703D01*
D102*
X008090Y031229D03*
X006436Y031229D03*
X004782Y031229D03*
X004782Y029063D03*
X006436Y029063D03*
X008090Y029063D03*
X031282Y029063D03*
X032936Y029063D03*
X034590Y029063D03*
X034590Y031229D03*
X032936Y031229D03*
X031282Y031229D03*
D103*
X043345Y011052D03*
X043542Y011052D03*
X043739Y011052D03*
X043936Y011052D03*
X044133Y011052D03*
X044330Y011052D03*
X044527Y011052D03*
X044428Y010540D03*
X044231Y010540D03*
X044034Y010540D03*
X043838Y010540D03*
X043641Y010540D03*
X043444Y010540D03*
X043444Y010146D03*
X043641Y010146D03*
X043838Y010146D03*
X044034Y010146D03*
X044231Y010146D03*
X044428Y010146D03*
X044428Y009752D03*
X044231Y009752D03*
X044034Y009752D03*
X043838Y009752D03*
X043641Y009752D03*
X043444Y009752D03*
X043542Y009241D03*
X043345Y009241D03*
X043739Y009241D03*
X043936Y009241D03*
X044133Y009241D03*
X044330Y009241D03*
X044527Y009241D03*
D104*
X044842Y009556D03*
X044842Y009752D03*
X044842Y009949D03*
X044842Y010146D03*
X044842Y010343D03*
X044842Y010540D03*
X044842Y010737D03*
X043031Y010737D03*
X043031Y010540D03*
X043031Y010343D03*
X043031Y010146D03*
X043031Y009949D03*
X043031Y009752D03*
X043031Y009556D03*
D105*
X043108Y009318D03*
D106*
X044913Y008661D03*
X044913Y007992D03*
D107*
X045936Y008095D03*
X045936Y009197D03*
D108*
X044428Y006000D03*
X044428Y005213D03*
X043444Y005213D03*
X043444Y006000D03*
D109*
X041566Y004146D03*
X046306Y004146D03*
D110*
X039125Y002646D03*
X037747Y002646D03*
D111*
X040313Y003027D03*
X040313Y003775D03*
D112*
X041267Y007146D03*
X042605Y007146D03*
X043767Y007146D03*
X045105Y007146D03*
D113*
X047436Y007315D03*
X047436Y005977D03*
X045936Y009977D03*
X045936Y011315D03*
D114*
X014826Y004726D02*
X014826Y004126D01*
X013046Y004126D02*
X013046Y004726D01*
X012322Y003446D02*
X012322Y002846D01*
X013046Y002166D02*
X013046Y001566D01*
X014826Y001566D02*
X014826Y002166D01*
D115*
X015436Y036734D02*
X015436Y037559D01*
X013436Y037559D02*
X013436Y036734D01*
X011436Y036734D02*
X011436Y037559D01*
X017436Y037559D02*
X017436Y036734D01*
X019436Y036734D02*
X019436Y037559D01*
X021436Y037559D02*
X021436Y036734D01*
X023436Y036734D02*
X023436Y037559D01*
X025436Y037559D02*
X025436Y036734D01*
X037936Y037234D02*
X037936Y038059D01*
X039936Y038059D02*
X039936Y037234D01*
X041936Y037234D02*
X041936Y038059D01*
X043936Y038059D02*
X043936Y037234D01*
X045936Y037234D02*
X045936Y038059D01*
X047936Y038059D02*
X047936Y037234D01*
X049936Y037234D02*
X049936Y038059D01*
X051936Y038059D02*
X051936Y037234D01*
D116*
X047436Y005146D03*
M02*
