G75*
G70*
%OFA0B0*%
%FSLAX24Y24*%
%IPPOS*%
%LPD*%
%AMOC8*
5,1,8,0,0,1.08239X$1,22.5*
%
%ADD10R,3.7932X0.0697*%
%ADD11R,0.0673X1.5353*%
%ADD12R,0.2882X0.0747*%
%ADD13R,0.0808X0.3800*%
%ADD14R,0.0770X0.4583*%
%ADD15R,0.0863X0.4849*%
%ADD16R,0.0879X0.5591*%
%ADD17R,0.4090X0.0833*%
%ADD18R,0.0863X0.4773*%
%ADD19R,0.0675X0.2157*%
%ADD20R,0.1389X0.0796*%
%ADD21R,0.0241X0.0124*%
%ADD22R,0.0194X0.0150*%
%ADD23R,0.0385X0.0330*%
%ADD24R,0.0279X0.0340*%
%ADD25R,0.0274X0.0233*%
%ADD26R,0.0786X0.0274*%
%ADD27R,0.0629X0.0456*%
%ADD28R,0.0406X0.0299*%
%ADD29R,0.0330X0.0441*%
%ADD30R,0.0507X0.0593*%
%ADD31R,0.0314X0.0284*%
%ADD32R,0.0152X0.0340*%
%ADD33R,0.0117X0.0213*%
%ADD34R,0.0106X0.0147*%
%ADD35R,0.0132X0.0147*%
%ADD36R,0.0162X0.0193*%
%ADD37R,0.0112X0.0188*%
%ADD38R,0.0112X0.0132*%
%ADD39R,0.0147X0.0325*%
%ADD40R,0.0101X0.0218*%
%ADD41R,0.0106X0.0269*%
%ADD42R,0.0147X0.2977*%
%ADD43R,0.0152X0.2997*%
%ADD44R,0.0252X0.7312*%
%ADD45R,0.0137X1.2047*%
%ADD46R,0.0158X0.4602*%
%ADD47R,3.7303X0.0192*%
%ADD48R,3.7918X0.0115*%
%ADD49R,0.1777X0.0791*%
%ADD50R,0.0492X0.0502*%
%ADD51R,0.0213X0.0157*%
%ADD52R,0.0112X0.0112*%
%ADD53R,0.0132X0.0142*%
%ADD54R,0.0112X0.0076*%
%ADD55R,0.0122X0.0086*%
%ADD56R,0.0294X0.0223*%
%ADD57R,0.0289X0.0243*%
%ADD58R,0.0172X0.0127*%
%ADD59R,0.0122X0.0117*%
%ADD60R,0.0188X0.0172*%
%ADD61R,0.0142X0.0132*%
%ADD62R,0.0112X0.0147*%
%ADD63R,0.0114X0.0087*%
%ADD64R,0.0121X0.0092*%
%ADD65R,0.0119X0.0073*%
%ADD66R,0.0073X0.0048*%
%ADD67R,0.0100X0.0160*%
%ADD68R,0.0048X0.0049*%
%ADD69R,0.0081X0.0050*%
%ADD70R,0.0078X0.0058*%
%ADD71R,0.0041X0.0036*%
%ADD72R,0.0020X0.0028*%
%ADD73R,0.0046X0.0047*%
%ADD74R,0.0081X0.0052*%
%ADD75R,0.0049X0.0044*%
%ADD76R,0.0040X0.0035*%
%ADD77R,0.0010X0.0019*%
%ADD78R,0.0390X0.0255*%
%ADD79R,0.0340X0.0261*%
%ADD80R,0.0258X0.0249*%
%ADD81R,0.0355X0.0241*%
%ADD82R,0.0396X0.0229*%
%ADD83R,0.0326X0.0314*%
%ADD84R,0.0214X0.0205*%
%ADD85R,0.0123X0.0117*%
%ADD86R,0.0402X0.0288*%
%ADD87R,0.0255X0.0135*%
%ADD88R,0.0167X0.0211*%
%ADD89R,0.0156X0.0106*%
%ADD90R,0.0182X0.0205*%
%ADD91R,0.0754X0.1620*%
%ADD92R,0.0112X0.0102*%
%ADD93R,0.0211X0.0273*%
%ADD94R,0.0740X0.0740*%
%ADD95OC8,0.0740*%
%ADD96C,0.0740*%
%ADD97C,0.0640*%
%ADD98R,0.0907X0.0907*%
%ADD99C,0.1261*%
%ADD100C,0.0674*%
%ADD101C,0.0966*%
%ADD102R,0.0966X0.0966*%
%ADD103R,0.0118X0.0236*%
%ADD104R,0.0236X0.0118*%
%ADD105R,0.0197X0.0197*%
%ADD106R,0.0671X0.0592*%
%ADD107R,0.0789X0.0710*%
%ADD108OC8,0.0654*%
%ADD109C,0.1386*%
%ADD110R,0.0671X0.0671*%
%ADD111R,0.0710X0.0592*%
%ADD112R,0.0631X0.0789*%
%ADD113R,0.0789X0.0631*%
%ADD114C,0.0680*%
%ADD115C,0.0905*%
%ADD116C,0.0611*%
D10*
X031126Y022666D03*
D11*
X049978Y015214D03*
D12*
X052516Y006672D03*
D13*
X028962Y024337D03*
D14*
X037981Y025044D03*
D15*
X034466Y032014D03*
D16*
X007949Y031658D03*
D17*
X008903Y028689D03*
D18*
X012471Y024825D03*
D19*
G36*
X012722Y027387D02*
X012245Y026910D01*
X010722Y028433D01*
X011199Y028910D01*
X012722Y027387D01*
G37*
G36*
X034275Y029432D02*
X034752Y029909D01*
X036275Y028386D01*
X035798Y027909D01*
X034275Y029432D01*
G37*
D20*
X036320Y028193D03*
D21*
X050226Y022850D03*
D22*
X050151Y022941D03*
D23*
X050372Y007601D03*
D24*
X050592Y007383D03*
D25*
X050773Y007213D03*
D26*
X050745Y006995D03*
D27*
X050950Y006737D03*
D28*
X050985Y006450D03*
D29*
X050070Y007398D03*
D30*
X050377Y007236D03*
D31*
X050483Y006848D03*
D32*
X050585Y006658D03*
D33*
X050760Y006478D03*
D34*
X050689Y006491D03*
D35*
X050483Y006653D03*
D36*
X050265Y006914D03*
D37*
X050078Y007104D03*
D38*
X049997Y007178D03*
D39*
X049867Y007411D03*
D40*
X049723Y007490D03*
D41*
X049796Y007439D03*
D42*
X049654Y009087D03*
D43*
X050341Y009189D03*
D44*
X049718Y014205D03*
D45*
X050323Y016688D03*
D46*
X049649Y020153D03*
D47*
X031437Y022992D03*
D48*
X031313Y022322D03*
D49*
X030218Y026678D03*
D50*
X029131Y026402D03*
D51*
X029408Y026255D03*
D52*
X029550Y026263D03*
D53*
X029387Y026136D03*
D54*
X029453Y026164D03*
D55*
X029347Y026068D03*
D56*
X029240Y026730D03*
D57*
X028802Y026293D03*
D58*
X028825Y026453D03*
D59*
X029058Y026697D03*
D60*
X029294Y026867D03*
D61*
X029316Y026968D03*
D62*
X029200Y026859D03*
D63*
X029077Y026761D03*
D64*
X028983Y026665D03*
D65*
X028859Y026534D03*
D66*
X028722Y026422D03*
D67*
X028642Y026292D03*
D68*
X028658Y026372D03*
D69*
X028743Y026454D03*
D70*
X028867Y026593D03*
D71*
X028795Y026524D03*
D72*
X028924Y026655D03*
D73*
X028994Y026718D03*
D74*
X029135Y026857D03*
D75*
X029094Y026810D03*
D76*
X029237Y026958D03*
D77*
X029246Y026981D03*
D78*
X034315Y029553D03*
D79*
X034401Y029318D03*
D80*
X034566Y029162D03*
D81*
X034793Y028964D03*
D82*
X034925Y028788D03*
D83*
X035107Y028614D03*
D84*
X035316Y028404D03*
D85*
X035414Y028298D03*
D86*
X035498Y028242D03*
D87*
X035597Y028143D03*
D88*
X035632Y028072D03*
D89*
X037117Y028492D03*
D90*
X037233Y028386D03*
D91*
G36*
X038308Y027370D02*
X037775Y026837D01*
X036630Y027982D01*
X037163Y028515D01*
X038308Y027370D01*
G37*
D92*
X038297Y027348D03*
D93*
X037083Y028444D03*
D94*
X004980Y002680D03*
X004980Y010680D03*
D95*
X005980Y010680D03*
X006980Y010680D03*
X007980Y010680D03*
X008980Y010680D03*
X009980Y010680D03*
X009980Y002680D03*
X008980Y002680D03*
X007980Y002680D03*
X006980Y002680D03*
X005980Y002680D03*
D96*
X018480Y004180D03*
X019480Y004180D03*
X020480Y004180D03*
X021480Y004180D03*
X022480Y004180D03*
X023480Y004180D03*
X024480Y004180D03*
X025480Y004180D03*
X026480Y004180D03*
X027480Y004180D03*
X028480Y004180D03*
X029480Y004180D03*
X030480Y004680D03*
X030480Y005680D03*
X030480Y006680D03*
X030480Y007680D03*
X030480Y008680D03*
X030480Y009680D03*
X029480Y010180D03*
X028480Y010180D03*
X027480Y010180D03*
X026480Y010180D03*
X025480Y010180D03*
X024480Y010180D03*
X023480Y010180D03*
X022480Y010180D03*
X021480Y010180D03*
X020480Y010180D03*
X019480Y010180D03*
X018480Y010180D03*
X020930Y005330D03*
X021930Y005330D03*
X025030Y005330D03*
X026030Y005330D03*
D97*
X033200Y005180D02*
X033760Y005180D01*
X033760Y006180D02*
X033200Y006180D01*
X035700Y004680D02*
X036260Y004680D01*
X036260Y003680D02*
X035700Y003680D01*
X033760Y004180D02*
X033200Y004180D01*
X036980Y005900D02*
X036980Y006460D01*
X036980Y007400D02*
X036980Y007960D01*
X036980Y008900D02*
X036980Y009460D01*
X037980Y009460D02*
X037980Y008900D01*
X037980Y007960D02*
X037980Y007400D01*
X037980Y006460D02*
X037980Y005900D01*
X023980Y011400D02*
X023980Y011960D01*
X022980Y011960D02*
X022980Y011400D01*
X021980Y011400D02*
X021980Y011960D01*
X018980Y011960D02*
X018980Y011400D01*
X017980Y011400D02*
X017980Y011960D01*
X016980Y011960D02*
X016980Y011400D01*
D98*
X051897Y008334D03*
X054063Y008334D03*
X054063Y006680D03*
X051897Y006680D03*
X051897Y005026D03*
X054063Y005026D03*
D99*
X053882Y003176D03*
X053882Y010184D03*
D100*
X047980Y015383D02*
X047980Y015977D01*
X046980Y015977D02*
X046980Y015383D01*
X045980Y015383D02*
X045980Y015977D01*
X044980Y015977D02*
X044980Y015383D01*
X035980Y015383D02*
X035980Y015977D01*
X034980Y015977D02*
X034980Y015383D01*
X033980Y015383D02*
X033980Y015977D01*
X032980Y015977D02*
X032980Y015383D01*
X031277Y015680D02*
X030683Y015680D01*
X030683Y016680D02*
X031277Y016680D01*
X027777Y016680D02*
X027183Y016680D01*
X027183Y015680D02*
X027777Y015680D01*
X021480Y015383D02*
X021480Y015977D01*
X020480Y015977D02*
X020480Y015383D01*
X019480Y015383D02*
X019480Y015977D01*
X018480Y015977D02*
X018480Y015383D01*
X011480Y013477D02*
X011480Y012883D01*
X010480Y012883D02*
X010480Y013477D01*
X009480Y013477D02*
X009480Y012883D01*
X008480Y012883D02*
X008480Y013477D01*
X008480Y015383D02*
X008480Y015977D01*
X007480Y015977D02*
X007480Y015383D01*
X006480Y015383D02*
X006480Y015977D01*
X004777Y015680D02*
X004183Y015680D01*
X004183Y016680D02*
X004777Y016680D01*
X009480Y015977D02*
X009480Y015383D01*
X009480Y025383D02*
X009480Y025977D01*
X008480Y025977D02*
X008480Y025383D01*
X007480Y025383D02*
X007480Y025977D01*
X006480Y025977D02*
X006480Y025383D01*
X004777Y025680D02*
X004183Y025680D01*
X004183Y026680D02*
X004777Y026680D01*
X004777Y027680D02*
X004183Y027680D01*
X005480Y034383D02*
X005480Y034977D01*
X006480Y034977D02*
X006480Y034383D01*
X007480Y034383D02*
X007480Y034977D01*
X008480Y034977D02*
X008480Y034383D01*
X009480Y034383D02*
X009480Y034977D01*
X010480Y034977D02*
X010480Y034383D01*
X012480Y034383D02*
X012480Y034977D01*
X013480Y034977D02*
X013480Y034383D01*
X014480Y034383D02*
X014480Y034977D01*
X015480Y034977D02*
X015480Y034383D01*
X016480Y034383D02*
X016480Y034977D01*
X017480Y034977D02*
X017480Y034383D01*
X018480Y034383D02*
X018480Y034977D01*
X019480Y034977D02*
X019480Y034383D01*
X020480Y034383D02*
X020480Y034977D01*
X021480Y034977D02*
X021480Y034383D01*
X022480Y034383D02*
X022480Y034977D01*
X023480Y034977D02*
X023480Y034383D01*
X024480Y034383D02*
X024480Y034977D01*
X025480Y034977D02*
X025480Y034383D01*
X026480Y034383D02*
X026480Y034977D01*
X027480Y034977D02*
X027480Y034383D01*
X031980Y034383D02*
X031980Y034977D01*
X032980Y034977D02*
X032980Y034383D01*
X033980Y034383D02*
X033980Y034977D01*
X034980Y034977D02*
X034980Y034383D01*
X035980Y034383D02*
X035980Y034977D01*
X036980Y034977D02*
X036980Y034383D01*
X038980Y034383D02*
X038980Y034977D01*
X039980Y034977D02*
X039980Y034383D01*
X040980Y034383D02*
X040980Y034977D01*
X041980Y034977D02*
X041980Y034383D01*
X042980Y034383D02*
X042980Y034977D01*
X043980Y034977D02*
X043980Y034383D01*
X044980Y034383D02*
X044980Y034977D01*
X045980Y034977D02*
X045980Y034383D01*
X046980Y034383D02*
X046980Y034977D01*
X047980Y034977D02*
X047980Y034383D01*
X048980Y034383D02*
X048980Y034977D01*
X049980Y034977D02*
X049980Y034383D01*
X050980Y034383D02*
X050980Y034977D01*
X051980Y034977D02*
X051980Y034383D01*
X052980Y034383D02*
X052980Y034977D01*
X053980Y034977D02*
X053980Y034383D01*
X035980Y025977D02*
X035980Y025383D01*
X034980Y025383D02*
X034980Y025977D01*
X033980Y025977D02*
X033980Y025383D01*
X032980Y025383D02*
X032980Y025977D01*
X031277Y025680D02*
X030683Y025680D01*
X030683Y026680D02*
X031277Y026680D01*
X031277Y027680D02*
X030683Y027680D01*
X030980Y038383D02*
X030980Y038977D01*
X031980Y038977D02*
X031980Y038383D01*
X032980Y038383D02*
X032980Y038977D01*
X033980Y038977D02*
X033980Y038383D01*
X053683Y016680D02*
X054277Y016680D01*
X054277Y015680D02*
X053683Y015680D01*
X035480Y009477D02*
X035480Y008883D01*
X034480Y008883D02*
X034480Y009477D01*
X033480Y009477D02*
X033480Y008883D01*
X032480Y008883D02*
X032480Y009477D01*
D101*
X026980Y031737D02*
X026980Y032623D01*
X024980Y032623D02*
X024980Y031737D01*
X022980Y031737D02*
X022980Y032623D01*
X020980Y032623D02*
X020980Y031737D01*
X018980Y031737D02*
X018980Y032623D01*
X016980Y032623D02*
X016980Y031737D01*
X014980Y031737D02*
X014980Y032623D01*
X012980Y032623D02*
X012980Y031737D01*
X039480Y031737D02*
X039480Y032623D01*
X041480Y032623D02*
X041480Y031737D01*
X043480Y031737D02*
X043480Y032623D01*
X045480Y032623D02*
X045480Y031737D01*
X047480Y031737D02*
X047480Y032623D01*
X049480Y032623D02*
X049480Y031737D01*
X051480Y031737D02*
X051480Y032623D01*
X053480Y032623D02*
X053480Y031737D01*
D102*
X036134Y032263D03*
X034480Y032263D03*
X032826Y032263D03*
X032826Y030097D03*
X034480Y030097D03*
X036134Y030097D03*
X009634Y030097D03*
X007980Y030097D03*
X006326Y030097D03*
X006326Y032263D03*
X007980Y032263D03*
X009634Y032263D03*
D103*
X044889Y012086D03*
X045086Y012086D03*
X045283Y012086D03*
X045480Y012086D03*
X045677Y012086D03*
X045874Y012086D03*
X046071Y012086D03*
X045972Y011574D03*
X045775Y011574D03*
X045578Y011574D03*
X045382Y011574D03*
X045185Y011574D03*
X044988Y011574D03*
X044988Y011180D03*
X045185Y011180D03*
X045382Y011180D03*
X045578Y011180D03*
X045775Y011180D03*
X045972Y011180D03*
X045972Y010786D03*
X045775Y010786D03*
X045578Y010786D03*
X045382Y010786D03*
X045185Y010786D03*
X044988Y010786D03*
X045086Y010274D03*
X044889Y010274D03*
X045283Y010274D03*
X045480Y010274D03*
X045677Y010274D03*
X045874Y010274D03*
X046071Y010274D03*
D104*
X046386Y010589D03*
X046386Y010786D03*
X046386Y010983D03*
X046386Y011180D03*
X046386Y011377D03*
X046386Y011574D03*
X046386Y011771D03*
X044574Y011771D03*
X044574Y011574D03*
X044574Y011377D03*
X044574Y011180D03*
X044574Y010983D03*
X044574Y010786D03*
X044574Y010589D03*
D105*
X044652Y010352D03*
D106*
X046457Y009695D03*
X046457Y009026D03*
D107*
X047480Y009129D03*
X047480Y010231D03*
D108*
X045972Y007034D03*
X045972Y006247D03*
X044988Y006247D03*
X044988Y007034D03*
D109*
X043110Y005180D03*
X047850Y005180D03*
D110*
X040669Y003680D03*
X039291Y003680D03*
D111*
X041857Y004061D03*
X041857Y004809D03*
D112*
X042811Y008180D03*
X044149Y008180D03*
X045311Y008180D03*
X046649Y008180D03*
D113*
X048980Y008349D03*
X048980Y007011D03*
X047480Y011011D03*
X047480Y012349D03*
D114*
X016370Y005760D02*
X016370Y005160D01*
X014590Y005160D02*
X014590Y005760D01*
X013866Y004480D02*
X013866Y003880D01*
X014590Y003200D02*
X014590Y002600D01*
X016370Y002600D02*
X016370Y003200D01*
D115*
X016980Y037768D02*
X016980Y038593D01*
X014980Y038593D02*
X014980Y037768D01*
X012980Y037768D02*
X012980Y038593D01*
X018980Y038593D02*
X018980Y037768D01*
X020980Y037768D02*
X020980Y038593D01*
X022980Y038593D02*
X022980Y037768D01*
X024980Y037768D02*
X024980Y038593D01*
X026980Y038593D02*
X026980Y037768D01*
X039480Y038268D02*
X039480Y039093D01*
X041480Y039093D02*
X041480Y038268D01*
X043480Y038268D02*
X043480Y039093D01*
X045480Y039093D02*
X045480Y038268D01*
X047480Y038268D02*
X047480Y039093D01*
X049480Y039093D02*
X049480Y038268D01*
X051480Y038268D02*
X051480Y039093D01*
X053480Y039093D02*
X053480Y038268D01*
D116*
X048980Y006180D03*
M02*
