G75*
G70*
%OFA0B0*%
%FSLAX24Y24*%
%IPPOS*%
%LPD*%
%AMOC8*
5,1,8,0,0,1.08239X$1,22.5*
%
%ADD10R,0.0740X0.0740*%
%ADD11OC8,0.0740*%
%ADD12C,0.0740*%
%ADD13C,0.0640*%
%ADD14R,0.0907X0.0907*%
%ADD15C,0.1261*%
%ADD16C,0.0674*%
%ADD17C,0.0966*%
%ADD18R,0.0966X0.0966*%
%ADD19OC8,0.0654*%
%ADD20C,0.1386*%
%ADD21C,0.0680*%
%ADD22C,0.0905*%
%ADD23C,0.0611*%
D10*
X003436Y001646D03*
X003436Y009646D03*
D11*
X004436Y009646D03*
X005436Y009646D03*
X006436Y009646D03*
X007436Y009646D03*
X008436Y009646D03*
X008436Y001646D03*
X007436Y001646D03*
X006436Y001646D03*
X005436Y001646D03*
X004436Y001646D03*
D12*
X016936Y003146D03*
X017936Y003146D03*
X018936Y003146D03*
X019936Y003146D03*
X020936Y003146D03*
X021936Y003146D03*
X022936Y003146D03*
X023936Y003146D03*
X024936Y003146D03*
X025936Y003146D03*
X026936Y003146D03*
X027936Y003146D03*
X028936Y003646D03*
X028936Y004646D03*
X028936Y005646D03*
X028936Y006646D03*
X028936Y007646D03*
X028936Y008646D03*
X027936Y009146D03*
X026936Y009146D03*
X025936Y009146D03*
X024936Y009146D03*
X023936Y009146D03*
X022936Y009146D03*
X021936Y009146D03*
X020936Y009146D03*
X019936Y009146D03*
X018936Y009146D03*
X017936Y009146D03*
X016936Y009146D03*
X019386Y004296D03*
X020386Y004296D03*
X023486Y004296D03*
X024486Y004296D03*
D13*
X031656Y004146D02*
X032216Y004146D01*
X032216Y003146D02*
X031656Y003146D01*
X034156Y002646D02*
X034716Y002646D01*
X034716Y003646D02*
X034156Y003646D01*
X035436Y004866D02*
X035436Y005426D01*
X035436Y006366D02*
X035436Y006926D01*
X035436Y007866D02*
X035436Y008426D01*
X036436Y008426D02*
X036436Y007866D01*
X036436Y006926D02*
X036436Y006366D01*
X036436Y005426D02*
X036436Y004866D01*
X032216Y005146D02*
X031656Y005146D01*
X022436Y010366D02*
X022436Y010926D01*
X021436Y010926D02*
X021436Y010366D01*
X020436Y010366D02*
X020436Y010926D01*
X017436Y010926D02*
X017436Y010366D01*
X016436Y010366D02*
X016436Y010926D01*
X015436Y010926D02*
X015436Y010366D01*
D14*
X050353Y007300D03*
X050353Y005646D03*
X050353Y003993D03*
X052519Y003993D03*
X052519Y005646D03*
X052519Y007300D03*
D15*
X052338Y009150D03*
X052338Y002142D03*
D16*
X046436Y014349D02*
X046436Y014943D01*
X045436Y014943D02*
X045436Y014349D01*
X044436Y014349D02*
X044436Y014943D01*
X043436Y014943D02*
X043436Y014349D01*
X052139Y014646D02*
X052733Y014646D01*
X052733Y015646D02*
X052139Y015646D01*
X034436Y014943D02*
X034436Y014349D01*
X033436Y014349D02*
X033436Y014943D01*
X032436Y014943D02*
X032436Y014349D01*
X031436Y014349D02*
X031436Y014943D01*
X029733Y014646D02*
X029139Y014646D01*
X029139Y015646D02*
X029733Y015646D01*
X026233Y015646D02*
X025639Y015646D01*
X025639Y014646D02*
X026233Y014646D01*
X019936Y014349D02*
X019936Y014943D01*
X018936Y014943D02*
X018936Y014349D01*
X017936Y014349D02*
X017936Y014943D01*
X016936Y014943D02*
X016936Y014349D01*
X009936Y012443D02*
X009936Y011849D01*
X008936Y011849D02*
X008936Y012443D01*
X007936Y012443D02*
X007936Y011849D01*
X006936Y011849D02*
X006936Y012443D01*
X006936Y014349D02*
X006936Y014943D01*
X005936Y014943D02*
X005936Y014349D01*
X004936Y014349D02*
X004936Y014943D01*
X003233Y014646D02*
X002639Y014646D01*
X002639Y015646D02*
X003233Y015646D01*
X007936Y014943D02*
X007936Y014349D01*
X007936Y024349D02*
X007936Y024943D01*
X006936Y024943D02*
X006936Y024349D01*
X005936Y024349D02*
X005936Y024943D01*
X004936Y024943D02*
X004936Y024349D01*
X003233Y024646D02*
X002639Y024646D01*
X002639Y025646D02*
X003233Y025646D01*
X003233Y026646D02*
X002639Y026646D01*
X003936Y033349D02*
X003936Y033943D01*
X004936Y033943D02*
X004936Y033349D01*
X005936Y033349D02*
X005936Y033943D01*
X006936Y033943D02*
X006936Y033349D01*
X007936Y033349D02*
X007936Y033943D01*
X008936Y033943D02*
X008936Y033349D01*
X010936Y033349D02*
X010936Y033943D01*
X011936Y033943D02*
X011936Y033349D01*
X012936Y033349D02*
X012936Y033943D01*
X013936Y033943D02*
X013936Y033349D01*
X014936Y033349D02*
X014936Y033943D01*
X015936Y033943D02*
X015936Y033349D01*
X016936Y033349D02*
X016936Y033943D01*
X017936Y033943D02*
X017936Y033349D01*
X018936Y033349D02*
X018936Y033943D01*
X019936Y033943D02*
X019936Y033349D01*
X020936Y033349D02*
X020936Y033943D01*
X021936Y033943D02*
X021936Y033349D01*
X022936Y033349D02*
X022936Y033943D01*
X023936Y033943D02*
X023936Y033349D01*
X024936Y033349D02*
X024936Y033943D01*
X025936Y033943D02*
X025936Y033349D01*
X030436Y033349D02*
X030436Y033943D01*
X031436Y033943D02*
X031436Y033349D01*
X032436Y033349D02*
X032436Y033943D01*
X033436Y033943D02*
X033436Y033349D01*
X034436Y033349D02*
X034436Y033943D01*
X035436Y033943D02*
X035436Y033349D01*
X037436Y033349D02*
X037436Y033943D01*
X038436Y033943D02*
X038436Y033349D01*
X039436Y033349D02*
X039436Y033943D01*
X040436Y033943D02*
X040436Y033349D01*
X041436Y033349D02*
X041436Y033943D01*
X042436Y033943D02*
X042436Y033349D01*
X043436Y033349D02*
X043436Y033943D01*
X044436Y033943D02*
X044436Y033349D01*
X045436Y033349D02*
X045436Y033943D01*
X046436Y033943D02*
X046436Y033349D01*
X047436Y033349D02*
X047436Y033943D01*
X048436Y033943D02*
X048436Y033349D01*
X049436Y033349D02*
X049436Y033943D01*
X050436Y033943D02*
X050436Y033349D01*
X051436Y033349D02*
X051436Y033943D01*
X052436Y033943D02*
X052436Y033349D01*
X034436Y024943D02*
X034436Y024349D01*
X033436Y024349D02*
X033436Y024943D01*
X032436Y024943D02*
X032436Y024349D01*
X031436Y024349D02*
X031436Y024943D01*
X029733Y024646D02*
X029139Y024646D01*
X029139Y025646D02*
X029733Y025646D01*
X029733Y026646D02*
X029139Y026646D01*
X029436Y037349D02*
X029436Y037943D01*
X030436Y037943D02*
X030436Y037349D01*
X031436Y037349D02*
X031436Y037943D01*
X032436Y037943D02*
X032436Y037349D01*
X031936Y008443D02*
X031936Y007849D01*
X030936Y007849D02*
X030936Y008443D01*
X032936Y008443D02*
X032936Y007849D01*
X033936Y007849D02*
X033936Y008443D01*
D17*
X037936Y030703D02*
X037936Y031589D01*
X039936Y031589D02*
X039936Y030703D01*
X041936Y030703D02*
X041936Y031589D01*
X043936Y031589D02*
X043936Y030703D01*
X045936Y030703D02*
X045936Y031589D01*
X047936Y031589D02*
X047936Y030703D01*
X049936Y030703D02*
X049936Y031589D01*
X051936Y031589D02*
X051936Y030703D01*
X025436Y030703D02*
X025436Y031589D01*
X023436Y031589D02*
X023436Y030703D01*
X021436Y030703D02*
X021436Y031589D01*
X019436Y031589D02*
X019436Y030703D01*
X017436Y030703D02*
X017436Y031589D01*
X015436Y031589D02*
X015436Y030703D01*
X013436Y030703D02*
X013436Y031589D01*
X011436Y031589D02*
X011436Y030703D01*
D18*
X008090Y031229D03*
X006436Y031229D03*
X004782Y031229D03*
X004782Y029063D03*
X006436Y029063D03*
X008090Y029063D03*
X031282Y029063D03*
X032936Y029063D03*
X034590Y029063D03*
X034590Y031229D03*
X032936Y031229D03*
X031282Y031229D03*
D19*
X043444Y006000D03*
X043444Y005213D03*
X044428Y005213D03*
X044428Y006000D03*
D20*
X046306Y004146D03*
X041566Y004146D03*
D21*
X014826Y004126D02*
X014826Y004726D01*
X013046Y004726D02*
X013046Y004126D01*
X012322Y003446D02*
X012322Y002846D01*
X013046Y002166D02*
X013046Y001566D01*
X014826Y001566D02*
X014826Y002166D01*
D22*
X015436Y036734D02*
X015436Y037559D01*
X013436Y037559D02*
X013436Y036734D01*
X011436Y036734D02*
X011436Y037559D01*
X017436Y037559D02*
X017436Y036734D01*
X019436Y036734D02*
X019436Y037559D01*
X021436Y037559D02*
X021436Y036734D01*
X023436Y036734D02*
X023436Y037559D01*
X025436Y037559D02*
X025436Y036734D01*
X037936Y037234D02*
X037936Y038059D01*
X039936Y038059D02*
X039936Y037234D01*
X041936Y037234D02*
X041936Y038059D01*
X043936Y038059D02*
X043936Y037234D01*
X045936Y037234D02*
X045936Y038059D01*
X047936Y038059D02*
X047936Y037234D01*
X049936Y037234D02*
X049936Y038059D01*
X051936Y038059D02*
X051936Y037234D01*
D23*
X047436Y005146D03*
M02*
