G75*
G70*
%OFA0B0*%
%FSLAX24Y24*%
%IPPOS*%
%LPD*%
%AMOC8*
5,1,8,0,0,1.08239X$1,22.5*
%
%ADD10C,0.0000*%
D10*
X002480Y001680D02*
X002480Y040050D01*
X055972Y040050D01*
X055972Y001680D01*
X002480Y001680D01*
X053291Y003176D02*
X053293Y003224D01*
X053299Y003272D01*
X053309Y003319D01*
X053322Y003365D01*
X053340Y003410D01*
X053360Y003454D01*
X053385Y003496D01*
X053413Y003535D01*
X053443Y003572D01*
X053477Y003606D01*
X053514Y003638D01*
X053552Y003667D01*
X053593Y003692D01*
X053636Y003714D01*
X053681Y003732D01*
X053727Y003746D01*
X053774Y003757D01*
X053822Y003764D01*
X053870Y003767D01*
X053918Y003766D01*
X053966Y003761D01*
X054014Y003752D01*
X054060Y003740D01*
X054105Y003723D01*
X054149Y003703D01*
X054191Y003680D01*
X054231Y003653D01*
X054269Y003623D01*
X054304Y003590D01*
X054336Y003554D01*
X054366Y003516D01*
X054392Y003475D01*
X054414Y003432D01*
X054434Y003388D01*
X054449Y003343D01*
X054461Y003296D01*
X054469Y003248D01*
X054473Y003200D01*
X054473Y003152D01*
X054469Y003104D01*
X054461Y003056D01*
X054449Y003009D01*
X054434Y002964D01*
X054414Y002920D01*
X054392Y002877D01*
X054366Y002836D01*
X054336Y002798D01*
X054304Y002762D01*
X054269Y002729D01*
X054231Y002699D01*
X054191Y002672D01*
X054149Y002649D01*
X054105Y002629D01*
X054060Y002612D01*
X054014Y002600D01*
X053966Y002591D01*
X053918Y002586D01*
X053870Y002585D01*
X053822Y002588D01*
X053774Y002595D01*
X053727Y002606D01*
X053681Y002620D01*
X053636Y002638D01*
X053593Y002660D01*
X053552Y002685D01*
X053514Y002714D01*
X053477Y002746D01*
X053443Y002780D01*
X053413Y002817D01*
X053385Y002856D01*
X053360Y002898D01*
X053340Y002942D01*
X053322Y002987D01*
X053309Y003033D01*
X053299Y003080D01*
X053293Y003128D01*
X053291Y003176D01*
X053291Y010184D02*
X053293Y010232D01*
X053299Y010280D01*
X053309Y010327D01*
X053322Y010373D01*
X053340Y010418D01*
X053360Y010462D01*
X053385Y010504D01*
X053413Y010543D01*
X053443Y010580D01*
X053477Y010614D01*
X053514Y010646D01*
X053552Y010675D01*
X053593Y010700D01*
X053636Y010722D01*
X053681Y010740D01*
X053727Y010754D01*
X053774Y010765D01*
X053822Y010772D01*
X053870Y010775D01*
X053918Y010774D01*
X053966Y010769D01*
X054014Y010760D01*
X054060Y010748D01*
X054105Y010731D01*
X054149Y010711D01*
X054191Y010688D01*
X054231Y010661D01*
X054269Y010631D01*
X054304Y010598D01*
X054336Y010562D01*
X054366Y010524D01*
X054392Y010483D01*
X054414Y010440D01*
X054434Y010396D01*
X054449Y010351D01*
X054461Y010304D01*
X054469Y010256D01*
X054473Y010208D01*
X054473Y010160D01*
X054469Y010112D01*
X054461Y010064D01*
X054449Y010017D01*
X054434Y009972D01*
X054414Y009928D01*
X054392Y009885D01*
X054366Y009844D01*
X054336Y009806D01*
X054304Y009770D01*
X054269Y009737D01*
X054231Y009707D01*
X054191Y009680D01*
X054149Y009657D01*
X054105Y009637D01*
X054060Y009620D01*
X054014Y009608D01*
X053966Y009599D01*
X053918Y009594D01*
X053870Y009593D01*
X053822Y009596D01*
X053774Y009603D01*
X053727Y009614D01*
X053681Y009628D01*
X053636Y009646D01*
X053593Y009668D01*
X053552Y009693D01*
X053514Y009722D01*
X053477Y009754D01*
X053443Y009788D01*
X053413Y009825D01*
X053385Y009864D01*
X053360Y009906D01*
X053340Y009950D01*
X053322Y009995D01*
X053309Y010041D01*
X053299Y010088D01*
X053293Y010136D01*
X053291Y010184D01*
M02*
