G75*
G70*
%OFA0B0*%
%FSLAX24Y24*%
%IPPOS*%
%LPD*%
%AMOC8*
5,1,8,0,0,1.08239X$1,22.5*
%
%ADD10R,0.0740X0.0740*%
%ADD11OC8,0.0740*%
%ADD12C,0.0740*%
%ADD13C,0.0640*%
%ADD14R,0.0907X0.0907*%
%ADD15C,0.1261*%
%ADD16C,0.0674*%
%ADD17C,0.0966*%
%ADD18R,0.0966X0.0966*%
%ADD19OC8,0.0654*%
%ADD20C,0.1386*%
%ADD21C,0.0680*%
%ADD22C,0.0905*%
%ADD23C,0.0611*%
D10*
X004980Y002680D03*
X004980Y010680D03*
D11*
X005980Y010680D03*
X006980Y010680D03*
X007980Y010680D03*
X008980Y010680D03*
X009980Y010680D03*
X009980Y002680D03*
X008980Y002680D03*
X007980Y002680D03*
X006980Y002680D03*
X005980Y002680D03*
D12*
X018480Y004180D03*
X019480Y004180D03*
X020480Y004180D03*
X021480Y004180D03*
X022480Y004180D03*
X023480Y004180D03*
X024480Y004180D03*
X025480Y004180D03*
X026480Y004180D03*
X027480Y004180D03*
X028480Y004180D03*
X029480Y004180D03*
X030480Y004680D03*
X030480Y005680D03*
X030480Y006680D03*
X030480Y007680D03*
X030480Y008680D03*
X030480Y009680D03*
X029480Y010180D03*
X028480Y010180D03*
X027480Y010180D03*
X026480Y010180D03*
X025480Y010180D03*
X024480Y010180D03*
X023480Y010180D03*
X022480Y010180D03*
X021480Y010180D03*
X020480Y010180D03*
X019480Y010180D03*
X018480Y010180D03*
X020930Y005330D03*
X021930Y005330D03*
X025030Y005330D03*
X026030Y005330D03*
D13*
X033200Y005180D02*
X033760Y005180D01*
X033760Y006180D02*
X033200Y006180D01*
X035700Y004680D02*
X036260Y004680D01*
X036260Y003680D02*
X035700Y003680D01*
X033760Y004180D02*
X033200Y004180D01*
X036980Y005900D02*
X036980Y006460D01*
X036980Y007400D02*
X036980Y007960D01*
X036980Y008900D02*
X036980Y009460D01*
X037980Y009460D02*
X037980Y008900D01*
X037980Y007960D02*
X037980Y007400D01*
X037980Y006460D02*
X037980Y005900D01*
X023980Y011400D02*
X023980Y011960D01*
X022980Y011960D02*
X022980Y011400D01*
X021980Y011400D02*
X021980Y011960D01*
X018980Y011960D02*
X018980Y011400D01*
X017980Y011400D02*
X017980Y011960D01*
X016980Y011960D02*
X016980Y011400D01*
D14*
X051897Y008334D03*
X054063Y008334D03*
X054063Y006680D03*
X051897Y006680D03*
X051897Y005026D03*
X054063Y005026D03*
D15*
X053882Y003176D03*
X053882Y010184D03*
D16*
X047980Y015383D02*
X047980Y015977D01*
X046980Y015977D02*
X046980Y015383D01*
X045980Y015383D02*
X045980Y015977D01*
X044980Y015977D02*
X044980Y015383D01*
X035980Y015383D02*
X035980Y015977D01*
X034980Y015977D02*
X034980Y015383D01*
X033980Y015383D02*
X033980Y015977D01*
X032980Y015977D02*
X032980Y015383D01*
X031277Y015680D02*
X030683Y015680D01*
X030683Y016680D02*
X031277Y016680D01*
X027777Y016680D02*
X027183Y016680D01*
X027183Y015680D02*
X027777Y015680D01*
X021480Y015383D02*
X021480Y015977D01*
X020480Y015977D02*
X020480Y015383D01*
X019480Y015383D02*
X019480Y015977D01*
X018480Y015977D02*
X018480Y015383D01*
X011480Y013477D02*
X011480Y012883D01*
X010480Y012883D02*
X010480Y013477D01*
X009480Y013477D02*
X009480Y012883D01*
X008480Y012883D02*
X008480Y013477D01*
X008480Y015383D02*
X008480Y015977D01*
X007480Y015977D02*
X007480Y015383D01*
X006480Y015383D02*
X006480Y015977D01*
X004777Y015680D02*
X004183Y015680D01*
X004183Y016680D02*
X004777Y016680D01*
X009480Y015977D02*
X009480Y015383D01*
X009480Y025383D02*
X009480Y025977D01*
X008480Y025977D02*
X008480Y025383D01*
X007480Y025383D02*
X007480Y025977D01*
X006480Y025977D02*
X006480Y025383D01*
X004777Y025680D02*
X004183Y025680D01*
X004183Y026680D02*
X004777Y026680D01*
X004777Y027680D02*
X004183Y027680D01*
X005480Y034383D02*
X005480Y034977D01*
X006480Y034977D02*
X006480Y034383D01*
X007480Y034383D02*
X007480Y034977D01*
X008480Y034977D02*
X008480Y034383D01*
X009480Y034383D02*
X009480Y034977D01*
X010480Y034977D02*
X010480Y034383D01*
X012480Y034383D02*
X012480Y034977D01*
X013480Y034977D02*
X013480Y034383D01*
X014480Y034383D02*
X014480Y034977D01*
X015480Y034977D02*
X015480Y034383D01*
X016480Y034383D02*
X016480Y034977D01*
X017480Y034977D02*
X017480Y034383D01*
X018480Y034383D02*
X018480Y034977D01*
X019480Y034977D02*
X019480Y034383D01*
X020480Y034383D02*
X020480Y034977D01*
X021480Y034977D02*
X021480Y034383D01*
X022480Y034383D02*
X022480Y034977D01*
X023480Y034977D02*
X023480Y034383D01*
X024480Y034383D02*
X024480Y034977D01*
X025480Y034977D02*
X025480Y034383D01*
X026480Y034383D02*
X026480Y034977D01*
X027480Y034977D02*
X027480Y034383D01*
X031980Y034383D02*
X031980Y034977D01*
X032980Y034977D02*
X032980Y034383D01*
X033980Y034383D02*
X033980Y034977D01*
X034980Y034977D02*
X034980Y034383D01*
X035980Y034383D02*
X035980Y034977D01*
X036980Y034977D02*
X036980Y034383D01*
X038980Y034383D02*
X038980Y034977D01*
X039980Y034977D02*
X039980Y034383D01*
X040980Y034383D02*
X040980Y034977D01*
X041980Y034977D02*
X041980Y034383D01*
X042980Y034383D02*
X042980Y034977D01*
X043980Y034977D02*
X043980Y034383D01*
X044980Y034383D02*
X044980Y034977D01*
X045980Y034977D02*
X045980Y034383D01*
X046980Y034383D02*
X046980Y034977D01*
X047980Y034977D02*
X047980Y034383D01*
X048980Y034383D02*
X048980Y034977D01*
X049980Y034977D02*
X049980Y034383D01*
X050980Y034383D02*
X050980Y034977D01*
X051980Y034977D02*
X051980Y034383D01*
X052980Y034383D02*
X052980Y034977D01*
X053980Y034977D02*
X053980Y034383D01*
X035980Y025977D02*
X035980Y025383D01*
X034980Y025383D02*
X034980Y025977D01*
X033980Y025977D02*
X033980Y025383D01*
X032980Y025383D02*
X032980Y025977D01*
X031277Y025680D02*
X030683Y025680D01*
X030683Y026680D02*
X031277Y026680D01*
X031277Y027680D02*
X030683Y027680D01*
X030980Y038383D02*
X030980Y038977D01*
X031980Y038977D02*
X031980Y038383D01*
X032980Y038383D02*
X032980Y038977D01*
X033980Y038977D02*
X033980Y038383D01*
X053683Y016680D02*
X054277Y016680D01*
X054277Y015680D02*
X053683Y015680D01*
X035480Y009477D02*
X035480Y008883D01*
X034480Y008883D02*
X034480Y009477D01*
X033480Y009477D02*
X033480Y008883D01*
X032480Y008883D02*
X032480Y009477D01*
D17*
X026980Y031737D02*
X026980Y032623D01*
X024980Y032623D02*
X024980Y031737D01*
X022980Y031737D02*
X022980Y032623D01*
X020980Y032623D02*
X020980Y031737D01*
X018980Y031737D02*
X018980Y032623D01*
X016980Y032623D02*
X016980Y031737D01*
X014980Y031737D02*
X014980Y032623D01*
X012980Y032623D02*
X012980Y031737D01*
X039480Y031737D02*
X039480Y032623D01*
X041480Y032623D02*
X041480Y031737D01*
X043480Y031737D02*
X043480Y032623D01*
X045480Y032623D02*
X045480Y031737D01*
X047480Y031737D02*
X047480Y032623D01*
X049480Y032623D02*
X049480Y031737D01*
X051480Y031737D02*
X051480Y032623D01*
X053480Y032623D02*
X053480Y031737D01*
D18*
X036134Y032263D03*
X034480Y032263D03*
X032826Y032263D03*
X032826Y030097D03*
X034480Y030097D03*
X036134Y030097D03*
X009634Y030097D03*
X007980Y030097D03*
X006326Y030097D03*
X006326Y032263D03*
X007980Y032263D03*
X009634Y032263D03*
D19*
X044988Y007034D03*
X044988Y006247D03*
X045972Y006247D03*
X045972Y007034D03*
D20*
X047850Y005180D03*
X043110Y005180D03*
D21*
X016370Y005160D02*
X016370Y005760D01*
X014590Y005760D02*
X014590Y005160D01*
X013866Y004480D02*
X013866Y003880D01*
X014590Y003200D02*
X014590Y002600D01*
X016370Y002600D02*
X016370Y003200D01*
D22*
X016980Y037768D02*
X016980Y038593D01*
X014980Y038593D02*
X014980Y037768D01*
X012980Y037768D02*
X012980Y038593D01*
X018980Y038593D02*
X018980Y037768D01*
X020980Y037768D02*
X020980Y038593D01*
X022980Y038593D02*
X022980Y037768D01*
X024980Y037768D02*
X024980Y038593D01*
X026980Y038593D02*
X026980Y037768D01*
X039480Y038268D02*
X039480Y039093D01*
X041480Y039093D02*
X041480Y038268D01*
X043480Y038268D02*
X043480Y039093D01*
X045480Y039093D02*
X045480Y038268D01*
X047480Y038268D02*
X047480Y039093D01*
X049480Y039093D02*
X049480Y038268D01*
X051480Y038268D02*
X051480Y039093D01*
X053480Y039093D02*
X053480Y038268D01*
D23*
X048980Y006180D03*
M02*
